<?xml version="1.0" encoding="utf-8"?>
<!-- Generator: Adobe Illustrator 21.1.0, SVG Export Plug-In . SVG Version: 6.00 Build 0)  -->
<svg version="1.1" id="Ebene_1" xmlns="http://www.w3.org/2000/svg" xmlns:xlink="http://www.w3.org/1999/xlink" x="0px" y="0px"
	 viewBox="0 0 392 205.3" style="enable-background:new 0 0 392 205.3;" xml:space="preserve">
<style type="text/css">
	.st0{fill:#05241F;}
	.st1{fill:#EDEDED;}
	.st2{fill:#DBCE2D;}
	.st3{fill:#B5A518;}
	.st4{fill:#FFFFFF;}
	.st5{fill:#D11221;}
	.st6{fill:#75151E;}
	.st7{fill:#EAEAEA;}
	.st8{fill:#ADADAD;}
</style>
<title>computer</title>
<g id="Ebene_2">
	<g id="Ebene_1-2">
		<path class="st0" d="M51.1,0h288.1c5.5,0,10,4.5,10,10v178.2c0,5.5-4.5,10-10,10H51.1c-5.5,0-10-4.5-10-10V10
			C41.1,4.5,45.5,0,51.1,0z"/>
		<rect x="66.6" y="21.7" class="st1" width="257.9" height="154.4"/>
		<path class="st0" d="M0,180.4c0,0,11.2,24.8,24.8,24.8h342.4c13.7,0,24.8-24.8,24.8-24.8H0z"/>
		<ellipse class="st0" cx="128.7" cy="145.4" rx="24.2" ry="10"/>
		<circle class="st2" cx="128.7" cy="123.3" r="24.2"/>
		<path class="st3" d="M128.7,147.4c13.3,0,24.2-10.8,24.2-24.1c0-7.3-3.3-14.2-8.9-18.8c7.1,11.3,3.6,26.2-7.7,33.3
			c-8.8,5.5-20.1,4.8-28.1-1.8C112.6,143.1,120.4,147.4,128.7,147.4z"/>
		<path class="st4" d="M111.6,106.4v14.3c2.6-7,8.4-12.5,15.6-14.7v-6.9C121.3,99.5,115.7,102.1,111.6,106.4z"/>
		<ellipse class="st0" cx="255.1" cy="132.3" rx="24.2" ry="10"/>
		<circle class="st5" cx="255.1" cy="110.1" r="24.2"/>
		<path class="st6" d="M255.1,134.3c13.3,0,24.2-10.8,24.2-24.2c0-7.3-3.3-14.1-8.9-18.7c7,11.3,3.6,26.2-7.8,33.3
			c-8.8,5.4-20,4.7-28-1.8C238.9,130,246.7,134.3,255.1,134.3z"/>
		<path class="st4" d="M238,93.3v14.3c2.6-7,8.4-12.5,15.6-14.7V86C247.6,86.4,242.1,89,238,93.3z"/>
		<ellipse class="st0" cx="174.8" cy="95.9" rx="24.2" ry="10"/>
		<circle class="st7" cx="174.8" cy="73.7" r="24.2"/>
		<path class="st8" d="M174.8,97.9c13.3,0,24.2-10.8,24.2-24.1c0-7.3-3.3-14.2-8.9-18.8c7.1,11.3,3.6,26.2-7.7,33.3
			c-8.8,5.5-20.1,4.7-28.1-1.8C158.7,93.6,166.5,97.9,174.8,97.9z"/>
		<path class="st4" d="M157.7,56.9v14.3c2.6-7,8.4-12.5,15.6-14.7v-6.9C167.4,50,161.8,52.6,157.7,56.9z"/>
	</g>
</g>
</svg>
