<?xml version="1.0" encoding="utf-8"?>
<!-- Generator: Adobe Illustrator 21.1.0, SVG Export Plug-In . SVG Version: 6.00 Build 0)  -->
<svg version="1.1" id="Ebene_1" xmlns="http://www.w3.org/2000/svg" xmlns:xlink="http://www.w3.org/1999/xlink" x="0px" y="0px"
	 viewBox="0 0 215.9 452" style="enable-background:new 0 0 215.9 452;" xml:space="preserve">
<style type="text/css">
	.st0{fill:#2D2E83;}
	.st1{fill:#FFFFFF;}
	.st2{fill:#E30613;}
	.st3{fill:#96892C;}
	.st4{fill:#DBCE2D;}
	.st5{fill:#BFAF14;}
</style>
<title>prix</title>
<g id="Ebene_2">
	<g id="Ebene_1-2">
		<polygon class="st0" points="32.5,0 8,0 74.1,306 98.6,306 		"/>
		<polygon class="st1" points="32.6,0 98.8,306 123.2,306 57.1,0 		"/>
		<polygon class="st1" points="32.6,0 32.5,0 98.6,306 98.8,306 		"/>
		<polygon class="st2" points="123.3,306 147.9,306 81.7,0 57.2,0 		"/>
		<polygon class="st2" points="123.2,306 123.3,306 57.2,0 57.1,0 		"/>
		<polygon class="st2" points="191.3,2 215.9,2 149.7,308 125.2,308 		"/>
		<polygon class="st1" points="191.2,2 125.1,308 100.6,308 166.8,2 		"/>
		<polygon class="st1" points="191.2,2 191.3,2 125.2,308 125.1,308 		"/>
		<polygon class="st0" points="100.5,308 75.9,308 142.1,2 166.6,2 		"/>
		<circle class="st3" cx="112" cy="351.9" r="100.1"/>
		<circle class="st4" cx="100.1" cy="348.2" r="100.1"/>
		<circle class="st5" cx="100.1" cy="347.2" r="86"/>
		<circle class="st5" cx="102.8" cy="350.6" r="85.9"/>
		<path class="st3" d="M102.8,265.3c25.4,0,49.5,11.2,65.8,30.7c-28.6-37.9-82.5-45.4-120.4-16.9c-37.9,28.6-45.4,82.5-16.9,120.4
			c1,1.3,1.9,2.5,3,3.7C5.6,365.4,13,311.5,50.9,282.8C65.8,271.5,84,265.3,102.8,265.3L102.8,265.3z"/>
		<path class="st3" d="M74.7,383.1h22.1v-64.9l-20.6,5.1l-6.9-8.3l39.8-22.8l6.9,8.3v82.5l15.2-8.3l6.9,8.3v17.4H74.7l-6.9-8.3
			L74.7,383.1z"/>
		<path class="st4" d="M67.8,374.9h22.1V310l-20.6,5.1v-17.8l20.7-5h19.1v82.5h22.1v17.4H67.8V374.9z"/>
	</g>
</g>
</svg>
