<?xml version="1.0" encoding="utf-8"?>
<!-- Generator: Adobe Illustrator 21.1.0, SVG Export Plug-In . SVG Version: 6.00 Build 0)  -->
<svg version="1.1" id="Ebene_1" xmlns="http://www.w3.org/2000/svg" xmlns:xlink="http://www.w3.org/1999/xlink" x="0px" y="0px"
	 viewBox="0 0 1251.3 329" style="enable-background:new 0 0 1251.3 329;" xml:space="preserve">
<style type="text/css">
	.st0{fill:#05241F;}
	.st1{fill:#37B3B1;}
	.st2{fill:#D11221;}
	.st3{fill:#75151E;}
	.st4{fill:#FFFFFF;}
	.st5{fill:#DBCE2D;}
	.st6{fill:#B5A518;}
	.st7{fill:#EAEAEA;}
	.st8{fill:#ADADAD;}
</style>
<title>tabel--balls</title>
<g id="Ebene_2">
	<g id="Ebene_1-2">
		<path class="st0" d="M0,84.8l217-78c24.4-8.2,50.7-9,75.6-2.5l958.7,260.2l0,0v62.4H0V84.8z"/>
		<path class="st1" d="M0,96.7l226-79.6c19.8-6.6,41-7.3,61.2-2l964.1,262.2v49.7H0V96.7z"/>
		<polygon class="st0" points="0,128.2 254,37.5 1251.3,312 1251.3,326.9 1251.3,326.9 0,326.9 		"/>
		<polygon class="st1" points="0,144.8 254,54.1 1251.3,326.9 1251.3,329 0,329 		"/>
		<ellipse class="st0" cx="585.6" cy="235.2" rx="24.2" ry="10"/>
		<circle class="st2" cx="585.6" cy="213.1" r="24.2"/>
		<path class="st3" d="M585.6,237.2c13.3,0,24.2-10.8,24.2-24.2c0-7.3-3.3-14.1-8.9-18.7c7,11.3,3.6,26.2-7.8,33.3
			c-8.8,5.4-20,4.7-28-1.8C569.5,232.9,577.2,237.2,585.6,237.2z"/>
		<path class="st4" d="M568.5,196.2v14.3c2.6-7,8.3-12.4,15.5-14.7v-6.9C578.1,189.3,572.6,191.9,568.5,196.2z"/>
		<ellipse class="st0" cx="279.6" cy="299.7" rx="24.2" ry="10"/>
		<circle class="st5" cx="279.6" cy="277.5" r="24.2"/>
		<path class="st6" d="M279.6,301.7c13.3,0,24.2-10.8,24.2-24.2c0-7.3-3.3-14.1-8.9-18.7c7,11.3,3.6,26.2-7.8,33.3
			c-8.8,5.4-20,4.7-28-1.8C263.5,297.4,271.3,301.7,279.6,301.7z"/>
		<path class="st4" d="M262.5,260.7V275c2.6-7,8.4-12.5,15.5-14.7v-6.9C272.2,253.8,266.7,256.4,262.5,260.7z"/>
		<ellipse class="st0" cx="166.6" cy="154.5" rx="24.2" ry="10"/>
		<circle class="st7" cx="166.6" cy="132.3" r="24.2"/>
		<path class="st8" d="M166.6,156.5c13.3,0,24.2-10.8,24.2-24.2c0-7.3-3.3-14.1-8.9-18.7c7,11.3,3.6,26.2-7.8,33.3
			c-8.8,5.4-20,4.7-28-1.8C150.5,152.2,158.3,156.5,166.6,156.5z"/>
		<path class="st4" d="M149.6,115.5v14.3c2.6-7,8.4-12.5,15.6-14.7v-6.9C159.2,108.6,153.7,111.2,149.6,115.5z"/>
	</g>
</g>
</svg>
