<?xml version="1.0" encoding="utf-8"?>
<!-- Generator: Adobe Illustrator 21.1.0, SVG Export Plug-In . SVG Version: 6.00 Build 0)  -->
<svg version="1.1" id="Ebene_1" xmlns="http://www.w3.org/2000/svg" xmlns:xlink="http://www.w3.org/1999/xlink" x="0px" y="0px"
	 viewBox="0 0 1251.3 428.1" style="enable-background:new 0 0 1251.3 428.1;" xml:space="preserve">
<style type="text/css">
	.st0{fill:#05241F;}
	.st1{fill:#37B3B1;}
	.st2{fill:none;}
</style>
<title>table</title>
<g id="Ebene_2">
	<g id="Ebene_1-2">
		<path class="st0" d="M1251.3,244.2l-217,78c-24.4,8.2-50.7,9-75.6,2.5L0,64.5l0,0V2.1h1251.3V244.2z"/>
		<path class="st1" d="M1251.3,232.3l-226,79.6c-19.8,6.6-41,7.3-61.2,2L0,51.7V2.1h1251.3V232.3z"/>
		<polygon class="st0" points="1251.3,200.7 997.3,291.5 0,17 0,2.1 0,2.1 1251.3,2.1 		"/>
		<polygon class="st1" points="1251.3,184.2 997.3,274.9 0,2.1 0,0 1251.3,0 		"/>
		<rect x="980.1" y="329" class="st2" width="34" height="99.1"/>
	</g>
</g>
</svg>
